<?xml version="1.0" encoding="utf-8"?>
<!-- Generator: Adobe Illustrator 24.0.0, SVG Export Plug-In . SVG Version: 6.00 Build 0)  -->
<svg version="1.1" id="Layer_1" xmlns="http://www.w3.org/2000/svg" xmlns:xlink="http://www.w3.org/1999/xlink" x="0px" y="0px"
	 viewBox="0 0 96 96" enable-background="new 0 0 96 96" xml:space="preserve">
<circle fill="#008000" cx="48" cy="48" r="48"/>
<sodipodi:namedview  bordercolor="#666666" borderopacity="1" fit-margin-bottom="0" fit-margin-left="0" fit-margin-right="0" fit-margin-top="0" gridtolerance="10" guidetolerance="10" id="namedview329" objecttolerance="10" pagecolor="#ffffff" showgrid="false">
	</sodipodi:namedview>
<g id="g3" transform="matrix(2.6019 0 0 2.4767 -33.799 -57.097)">
	
		<linearGradient id="path16_1_" gradientUnits="userSpaceOnUse" x1="-107.1198" y1="127.0089" x2="-101.8596" y2="120.9624" gradientTransform="matrix(2.6019 0 0 -2.4767 312.8207 361.9912)">
		<stop  offset="0" style="stop-color:#FFFFFF"/>
		<stop  offset="0.1088" style="stop-color:#FCDBFB"/>
		<stop  offset="0.2646" style="stop-color:#F8AEF6"/>
		<stop  offset="0.385" style="stop-color:#F692F3"/>
		<stop  offset="0.4545" style="stop-color:#F587F2"/>
	</linearGradient>
	<path id="path16" fill="url(#path16_1_)" stroke="#D5D6D7" stroke-width="1.773852e-02" d="M34.7,47.1c0,0,6,0.4,5.8,6.3v0.7
		c0,0-4.3,1-7.2-3.7l-0.8-1.9L34.7,47.1L34.7,47.1z"/>
	
		<linearGradient id="path29_1_" gradientUnits="userSpaceOnUse" x1="-109.1894" y1="126.1192" x2="-112.6881" y2="122.3098" gradientTransform="matrix(2.6019 0 0 -2.4767 312.8207 361.9912)">
		<stop  offset="0" style="stop-color:#FFFFFF"/>
		<stop  offset="0.1088" style="stop-color:#FCDBFB"/>
		<stop  offset="0.2646" style="stop-color:#F8AEF6"/>
		<stop  offset="0.385" style="stop-color:#F692F3"/>
		<stop  offset="0.4545" style="stop-color:#F587F2"/>
	</linearGradient>
	<path id="path29" fill="url(#path29_1_)" stroke="#D5D6D7" stroke-width="1.773852e-02" d="M27,48.2c0,0-2,1.1-2.2,6
		c0,0,3.7,1.3,5.2-3.5L27,48.2z"/>
	
		<linearGradient id="path48_1_" gradientUnits="userSpaceOnUse" x1="-114.0335" y1="127.0604" x2="-101.741" y2="127.0604" gradientTransform="matrix(2.6019 0 0 -2.4767 312.8207 361.9912)">
		<stop  offset="0.1273" style="stop-color:#FFFFFF"/>
		<stop  offset="0.1758" style="stop-color:#FDE8FC"/>
		<stop  offset="0.2521" style="stop-color:#FBCAF9"/>
		<stop  offset="0.3366" style="stop-color:#F9B1F7"/>
		<stop  offset="0.4313" style="stop-color:#F79EF5"/>
		<stop  offset="0.5418" style="stop-color:#F691F3"/>
		<stop  offset="0.6826" style="stop-color:#F589F2"/>
		<stop  offset="0.9571" style="stop-color:#F587F2"/>
	</linearGradient>
	<path id="path48" fill="url(#path48_1_)" stroke="#D5D6D7" stroke-width="1.773852e-02" d="M28.4,47.5c0,0-1.9,2.6-5.5,1.6
		c-3.6-0.9-7-3.3-6.7-3.9"/>
	
		<linearGradient id="path67_1_" gradientUnits="userSpaceOnUse" x1="-106.3295" y1="128.0026" x2="-95.668" y2="128.0026" gradientTransform="matrix(2.6019 0 0 -2.4767 312.8207 361.9912)">
		<stop  offset="0.1273" style="stop-color:#FFFFFF"/>
		<stop  offset="0.1295" style="stop-color:#FFFEFF"/>
		<stop  offset="0.2433" style="stop-color:#FCDAFB"/>
		<stop  offset="0.3616" style="stop-color:#F9BCF8"/>
		<stop  offset="0.4869" style="stop-color:#F7A5F5"/>
		<stop  offset="0.6204" style="stop-color:#F694F3"/>
		<stop  offset="0.768" style="stop-color:#F58AF2"/>
		<stop  offset="0.9571" style="stop-color:#F587F2"/>
	</linearGradient>
	<path id="path67" fill="url(#path67_1_)" stroke="#D5D6D7" stroke-width="1.773852e-02" d="M46.8,41.8c0,0,0,2.6-4.7,5
		s-5.9,0.9-5.9,0.9"/>
	
		<linearGradient id="path80_1_" gradientUnits="userSpaceOnUse" x1="-108.5484" y1="129.7352" x2="-110.0127" y2="136.6668" gradientTransform="matrix(2.6019 0 0 -2.4767 312.8207 361.9912)">
		<stop  offset="0.1273" style="stop-color:#FFFFFF"/>
		<stop  offset="0.3259" style="stop-color:#FCDBFB"/>
		<stop  offset="0.6104" style="stop-color:#F8AEF6"/>
		<stop  offset="0.8302" style="stop-color:#F692F3"/>
		<stop  offset="0.9571" style="stop-color:#F587F2"/>
	</linearGradient>
	<path id="path80" fill="url(#path80_1_)" stroke="#D5D6D7" stroke-width="1.773852e-02" d="M27.6,41.1c0,0-3-1.9-0.8-9.7
		c0,0,0.4-3.2,1.8-2c1.4,1.1,5,3,4.4,7.3l-0.6,4.3L27.6,41.1L27.6,41.1z"/>
	
		<linearGradient id="path99_1_" gradientUnits="userSpaceOnUse" x1="-106.1186" y1="130.6439" x2="-98.6175" y2="130.6439" gradientTransform="matrix(2.6019 0 0 -2.4767 312.8207 361.9912)">
		<stop  offset="0.1273" style="stop-color:#FFFFFF"/>
		<stop  offset="0.1774" style="stop-color:#FDE6FC"/>
		<stop  offset="0.251" style="stop-color:#FAC9F9"/>
		<stop  offset="0.3331" style="stop-color:#F8B1F7"/>
		<stop  offset="0.4254" style="stop-color:#F79EF4"/>
		<stop  offset="0.5339" style="stop-color:#F691F3"/>
		<stop  offset="0.6739" style="stop-color:#F589F2"/>
		<stop  offset="0.9571" style="stop-color:#F587F2"/>
	</linearGradient>
	<path id="path99" fill="url(#path99_1_)" stroke="#D5D6D7" stroke-width="1.773852e-02" d="M44.2,33.9c0,0-1.4,6.8-5.4,9
		c0,0-1.5-0.3-2.1-2.2"/>
	
		<linearGradient id="path118_1_" gradientUnits="userSpaceOnUse" x1="-106.1542" y1="129.9952" x2="-100.4554" y2="135.4888" gradientTransform="matrix(2.6019 0 0 -2.4767 312.8207 361.9912)">
		<stop  offset="0.1273" style="stop-color:#FFFFFF"/>
		<stop  offset="0.1774" style="stop-color:#FDE6FC"/>
		<stop  offset="0.251" style="stop-color:#FAC9F9"/>
		<stop  offset="0.3331" style="stop-color:#F8B1F7"/>
		<stop  offset="0.4254" style="stop-color:#F79EF4"/>
		<stop  offset="0.5339" style="stop-color:#F691F3"/>
		<stop  offset="0.6739" style="stop-color:#F589F2"/>
		<stop  offset="0.9571" style="stop-color:#F587F2"/>
	</linearGradient>
	<path id="path118" fill="url(#path118_1_)" stroke="#D5D6D7" stroke-width="1.773852e-02" d="M36.4,37.3c0,0,0.2-2.5,4.8-3.3
		c0,0,3.3-0.7,3.1,0s-2.2,5.7-5.4,7.2S36.4,37.3,36.4,37.3z"/>
	
		<linearGradient id="path131_1_" gradientUnits="userSpaceOnUse" x1="-106.9219" y1="131.8248" x2="-104.5066" y2="131.8248" gradientTransform="matrix(2.6019 0 0 -2.4767 312.8207 361.9912)">
		<stop  offset="0.1273" style="stop-color:#FFFFFF"/>
		<stop  offset="0.3259" style="stop-color:#FCDBFB"/>
		<stop  offset="0.6104" style="stop-color:#F8AEF6"/>
		<stop  offset="0.8302" style="stop-color:#F692F3"/>
		<stop  offset="0.9571" style="stop-color:#F587F2"/>
	</linearGradient>
	<path id="path131" fill="url(#path131_1_)" stroke="#D5D6D7" stroke-width="8.869082e-03" d="M34.8,29.4c0,0,0.9-1.8,2.1,8.8
		c0,0.1,0,0.1,0,0.2c0,0,0.7,1.7-2.3,3.3"/>
	
		<linearGradient id="path144_1_" gradientUnits="userSpaceOnUse" x1="-107.5075" y1="129.7581" x2="-105.5992" y2="140.1452" gradientTransform="matrix(2.6019 0 0 -2.4767 312.8207 361.9912)">
		<stop  offset="0.1273" style="stop-color:#FFFFFF"/>
		<stop  offset="0.3259" style="stop-color:#FCDBFB"/>
		<stop  offset="0.6104" style="stop-color:#F8AEF6"/>
		<stop  offset="0.8302" style="stop-color:#F692F3"/>
		<stop  offset="0.9571" style="stop-color:#F587F2"/>
	</linearGradient>
	<path id="path144" fill="url(#path144_1_)" stroke="#D5D6D7" stroke-width="1.773852e-02" d="M31.6,40.1c0,0-1.8-4.5,2.1-9.7
		c0,0,1.5-2.9,1.8,1.2s1.6,7.1-0.4,9.7l-0.5,0.5L31.6,40.1z"/>
	
		<linearGradient id="path163_1_" gradientUnits="userSpaceOnUse" x1="-107.0949" y1="128.4602" x2="-94.4419" y2="128.4602" gradientTransform="matrix(2.6019 0 0 -2.4767 312.8207 361.9912)">
		<stop  offset="0.1273" style="stop-color:#FFFFFF"/>
		<stop  offset="0.1295" style="stop-color:#FFFEFF"/>
		<stop  offset="0.2433" style="stop-color:#FCDAFB"/>
		<stop  offset="0.3616" style="stop-color:#F9BCF8"/>
		<stop  offset="0.4869" style="stop-color:#F7A5F5"/>
		<stop  offset="0.6204" style="stop-color:#F694F3"/>
		<stop  offset="0.768" style="stop-color:#F58AF2"/>
		<stop  offset="0.9571" style="stop-color:#F587F2"/>
	</linearGradient>
	<path id="path163" fill="url(#path163_1_)" stroke="#D5D6D7" stroke-width="1.773852e-02" d="M40.8,40.3c0,0,1.7-1.3,6,1.5
		c0,0-4.5,3.2-7.4,4.5c-2.9,1.3-3.2,1.4-3.2,1.4l-2-2.9L40.8,40.3z"/>
	
		<linearGradient id="path182_1_" gradientUnits="userSpaceOnUse" x1="-113.5159" y1="130.2753" x2="-106.169" y2="130.2753" gradientTransform="matrix(2.6019 0 0 -2.4767 312.8207 361.9912)">
		<stop  offset="0.1273" style="stop-color:#FFFFFF"/>
		<stop  offset="0.1758" style="stop-color:#FDE8FC"/>
		<stop  offset="0.2521" style="stop-color:#FBCAF9"/>
		<stop  offset="0.3366" style="stop-color:#F9B1F7"/>
		<stop  offset="0.4313" style="stop-color:#F79EF5"/>
		<stop  offset="0.5418" style="stop-color:#F691F3"/>
		<stop  offset="0.6826" style="stop-color:#F589F2"/>
		<stop  offset="0.9571" style="stop-color:#F587F2"/>
	</linearGradient>
	<path id="path182" fill="url(#path182_1_)" stroke="#D5D6D7" stroke-width="1.773852e-02" d="M17.5,34.7c0,0-0.5-0.1,1.1,2.9
		c1.6,3,3.8,6.7,6.2,6.5"/>
	
		<linearGradient id="path201_1_" gradientUnits="userSpaceOnUse" x1="-108.9993" y1="127.8817" x2="-121.3825" y2="128.287" gradientTransform="matrix(2.6019 0 0 -2.4767 312.8207 361.9912)">
		<stop  offset="0.1273" style="stop-color:#FFFFFF"/>
		<stop  offset="0.1758" style="stop-color:#FDE8FC"/>
		<stop  offset="0.2521" style="stop-color:#FBCAF9"/>
		<stop  offset="0.3366" style="stop-color:#F9B1F7"/>
		<stop  offset="0.4313" style="stop-color:#F79EF5"/>
		<stop  offset="0.5418" style="stop-color:#F691F3"/>
		<stop  offset="0.6826" style="stop-color:#F589F2"/>
		<stop  offset="0.9571" style="stop-color:#F587F2"/>
	</linearGradient>
	<path id="path201" fill="url(#path201_1_)" stroke="#D5D6D7" stroke-width="1.773852e-02" d="M28.4,47.5c0,0-11.1-0.4-12-1.8
		c-0.9-1.3,0-1,1.8-2.4c1.8-1.4,5-0.5,5.7,0.8C24.8,45.4,28.4,47.5,28.4,47.5L28.4,47.5z"/>
	
		<radialGradient id="path214_1_" cx="-110.6521" cy="93.354" r="60.8619" fx="-109.2921" fy="72.034" gradientTransform="matrix(0.2343 0 0 -0.5662 56.9328 103.8896)" gradientUnits="userSpaceOnUse">
		<stop  offset="0" style="stop-color:#FFFFFF"/>
		<stop  offset="0.1088" style="stop-color:#FCDBFB"/>
		<stop  offset="0.2646" style="stop-color:#F8AEF6"/>
		<stop  offset="0.385" style="stop-color:#F692F3"/>
		<stop  offset="0.4545" style="stop-color:#F587F2"/>
	</radialGradient>
	<path id="path214" fill="url(#path214_1_)" stroke="#D5D6D7" stroke-width="1.773852e-02" d="M27.1,48.6c0,0-0.9,3.8,2.9,6.7
		c0,0,1,0.9,1.9-0.4c0.9-1.3,4.5-4.3,2.5-6.7c-2-2.4-1.7-1.5-1.7-1.5l-4.3-0.2L27.1,48.6L27.1,48.6z"/>
	
		<linearGradient id="path233_1_" gradientUnits="userSpaceOnUse" x1="-109.7318" y1="128.6407" x2="-116.3302" y2="136.4177" gradientTransform="matrix(2.6019 0 0 -2.4767 312.8207 361.9912)">
		<stop  offset="0.1273" style="stop-color:#FFFFFF"/>
		<stop  offset="0.1758" style="stop-color:#FDE8FC"/>
		<stop  offset="0.2521" style="stop-color:#FBCAF9"/>
		<stop  offset="0.3366" style="stop-color:#F9B1F7"/>
		<stop  offset="0.4313" style="stop-color:#F79EF5"/>
		<stop  offset="0.5418" style="stop-color:#F691F3"/>
		<stop  offset="0.6826" style="stop-color:#F589F2"/>
		<stop  offset="0.9571" style="stop-color:#F587F2"/>
	</linearGradient>
	<path id="path233" fill="url(#path233_1_)" stroke="#D5D6D7" stroke-width="1.773852e-02" d="M27.1,38.5c0,0-1.7-3.9-8.1-3.9
		c0,0-2.7-0.6-1.1,1.3s4.1,9.5,9.1,8.2l0.5-2.3L27.1,38.5z"/>
	<g id="g235">
		<path id="path237" fill="#F6EA60" stroke="#F29D80" stroke-width="8.869082e-03" d="M28.2,42c0,0,1.5,4.3,1.7,4.8
			c0.2,0.5,3.4,0.3,3.4,0.3l1.6-5C34.8,42,31.8,38.5,28.2,42L28.2,42z"/>
		<ellipse id="ellipse239" fill="#F6EA60" stroke="#F29D80" stroke-width="8.869082e-03" cx="31.5" cy="42" rx="3.3" ry="1.8">
		</ellipse>
		<ellipse id="ellipse241" fill="#F6AE80" cx="31.5" cy="42" rx="2.6" ry="1.2">
		</ellipse>
		<ellipse id="ellipse243" fill="#F6EA60" stroke="#F29D80" stroke-width="8.869082e-03" cx="29.9" cy="41.7" rx="0.6" ry="0.3">
		</ellipse>
		<ellipse id="ellipse245" fill="#F6EA60" stroke="#F29D80" stroke-width="8.869082e-03" cx="30.6" cy="42.5" rx="0.6" ry="0.3">
		</ellipse>
		<ellipse id="ellipse247" fill="#F6EA60" stroke="#F29D80" stroke-width="8.869082e-03" cx="32.5" cy="42.6" rx="0.6" ry="0.3">
		</ellipse>
		<ellipse id="ellipse249" fill="#F6EA60" stroke="#F29D80" stroke-width="8.869082e-03" cx="31.6" cy="42" rx="0.6" ry="0.3">
		</ellipse>
		<ellipse id="ellipse251" fill="#F6EA60" stroke="#F29D80" stroke-width="8.869082e-03" cx="33.3" cy="42" rx="0.6" ry="0.3">
		</ellipse>
		<ellipse id="ellipse253" fill="#F6EA60" stroke="#F29D80" stroke-width="8.869082e-03" cx="32.4" cy="41.4" rx="0.6" ry="0.3">
		</ellipse>
		<ellipse id="ellipse255" fill="#F6EA60" stroke="#F29D80" stroke-width="8.869082e-03" cx="31.1" cy="41.2" rx="0.6" ry="0.3">
		</ellipse>
	</g>
	
		<linearGradient id="path268_1_" gradientUnits="userSpaceOnUse" x1="-108.3469" y1="127.3877" x2="-109.4294" y2="133.073" gradientTransform="matrix(2.6019 0 0 -2.4767 312.8207 361.9912)">
		<stop  offset="0.1273" style="stop-color:#FFFFFF"/>
		<stop  offset="0.3259" style="stop-color:#FCDBFB"/>
		<stop  offset="0.6104" style="stop-color:#F8AEF6"/>
		<stop  offset="0.8302" style="stop-color:#F692F3"/>
		<stop  offset="0.9571" style="stop-color:#F587F2"/>
	</linearGradient>
	<path id="path268" fill="url(#path268_1_)" stroke="#D5D6D7" stroke-width="1.773852e-02" d="M28.5,45.8c0,0-2.3-3.4-0.5-7.1
		c1.7-3.8,4.6,2.9,5.1,4.3c0.5,1.4-1.2,3.7-1.2,3.7S30.3,47.7,28.5,45.8z"/>
	
		<linearGradient id="path287_1_" gradientUnits="userSpaceOnUse" x1="-107.2382" y1="127.8677" x2="-101.8105" y2="133.2693" gradientTransform="matrix(2.6019 0 0 -2.4767 312.8207 361.9912)">
		<stop  offset="0.1273" style="stop-color:#FFFFFF"/>
		<stop  offset="0.1295" style="stop-color:#FFFEFF"/>
		<stop  offset="0.2433" style="stop-color:#FCDAFB"/>
		<stop  offset="0.3616" style="stop-color:#F9BCF8"/>
		<stop  offset="0.4869" style="stop-color:#F7A5F5"/>
		<stop  offset="0.6204" style="stop-color:#F694F3"/>
		<stop  offset="0.768" style="stop-color:#F58AF2"/>
		<stop  offset="0.9571" style="stop-color:#F587F2"/>
	</linearGradient>
	<path id="path287" fill="url(#path287_1_)" stroke="#D5D6D7" stroke-width="1.773852e-02" d="M33.4,45.6c0,0,1.7-6.1,5.4-7.2
		c0,0,2.3-0.9,2.2-0.5s-1.4,5.8-4.8,6.8L33.4,45.6L33.4,45.6z"/>
	
		<linearGradient id="path308_1_" gradientUnits="userSpaceOnUse" x1="-108.0353" y1="127.2511" x2="-112.0681" y2="128.6596" gradientTransform="matrix(2.6019 0 0 -2.4767 312.8207 361.9912)">
		<stop  offset="0.1273" style="stop-color:#FFFFFF"/>
		<stop  offset="0.1309" style="stop-color:#FFFCFF"/>
		<stop  offset="0.1811" style="stop-color:#FCDDFB"/>
		<stop  offset="0.2367" style="stop-color:#FAC2F8"/>
		<stop  offset="0.3006" style="stop-color:#F8ACF6"/>
		<stop  offset="0.3753" style="stop-color:#F79BF4"/>
		<stop  offset="0.4677" style="stop-color:#F690F3"/>
		<stop  offset="0.5973" style="stop-color:#F589F2"/>
		<stop  offset="0.9571" style="stop-color:#F587F2"/>
	</linearGradient>
	<path id="path308" fill="url(#path308_1_)" stroke="#D5D6D7" stroke-width="1.773852e-02" d="M31.3,46.3c0,0,0.9-1.9-2.5-2.7
		c-3.4-0.7-6.1,0.2-6.1,0.2l-0.5-0.9c0,0-0.9,1.3,1.6,2.9S27.8,48.6,31.3,46.3L31.3,46.3z"/>
	
		<linearGradient id="path327_1_" gradientUnits="userSpaceOnUse" x1="-108.8082" y1="127.6444" x2="-99.4447" y2="127.6444" gradientTransform="matrix(2.6019 0 0 -2.4767 312.8207 361.9912)">
		<stop  offset="0.1273" style="stop-color:#FFFFFF"/>
		<stop  offset="0.1295" style="stop-color:#FFFEFF"/>
		<stop  offset="0.2433" style="stop-color:#FCDAFB"/>
		<stop  offset="0.3616" style="stop-color:#F9BCF8"/>
		<stop  offset="0.4869" style="stop-color:#F7A5F5"/>
		<stop  offset="0.6204" style="stop-color:#F694F3"/>
		<stop  offset="0.768" style="stop-color:#F58AF2"/>
		<stop  offset="0.9571" style="stop-color:#F587F2"/>
	</linearGradient>
	<path id="path327" fill="url(#path327_1_)" stroke="#D5D6D7" stroke-width="1.773852e-02" d="M29.7,46.7c0,0,1.7-1.8,7.9-1.3
		c0,0,0.7,0.4,1.1-0.9c0.4-1.3-0.2-1.5-0.2-1.5s1.4,0.3,0.1,3S32.2,50.2,29.7,46.7z"/>
</g>
</svg>
